<svg width="16px" height="16px" xmlns="http://www.w3.org/2000/svg">
<g fill="none" fill-rule="evenodd" transform="matrix(0.07, 0, 0, 0.07, 1, 0.860009)">
	<g fill="#AFB1B3">
		<path d="M 132.247 2.015 C 166.292 2.218 199.831 30.448 199.831 71.629 C 199.831 71.629 199.995 82.038 200 94.603 L 200 96.29 C 199.998 98.838 199.989 101.458 199.97 104.083 L 199.957 105.833 C 199.851 118.081 199.526 130.131 198.72 135.273 C 193.87 166.741 170.434 188.394 138.106 193.959 C 108.911 199.625 91.535 203.066 85.979 204.078 C 84.572 204.371 80.413 204.971 76.281 205.423 L 75.427 205.514 C 72.731 205.795 70.128 206 68.401 206 C 32.84 206 0.412 179.288 0.008 136.386 L 0.008 136.044 L 0.008 135.896 L 0.007 135.526 L 0.007 135.303 L 0.006 134.789 L 0.003 133.113 L 0.003 132.298 L 0.003 131.861 L 0 129.406 L 0 124.658 L 0 124.004 L 0.001 121.974 C 0.004 117.816 0.013 113.104 0.031 108.324 L 0.036 106.728 C 0.084 95.018 0.189 83.217 0.411 78.408 C 2.129 46.94 23.343 21.543 64.661 13.448 C 64.661 13.448 112.547 4.14 117.295 3.229 C 122.144 2.319 127.397 1.914 132.245 2.015 L 132.247 2.015 Z M 157.099 37.328 L 76.28 53.011 L 76.28 85.491 L 42.943 91.967 L 42.943 170.788 L 123.863 155.004 L 123.863 122.625 L 157.099 116.15 L 157.099 37.328 Z M 123.862 76.182 L 123.862 122.524 L 76.28 131.833 L 76.28 85.49 L 123.862 76.181 L 123.862 76.182 Z"/>
	</g>
</g>
</svg>